<svg width="705" height="622" viewBox="0 0 705 622" fill="none" xmlns="http://www.w3.org/2000/svg">
<style>
@font-face {
  font-family: 'Inter';
  font-style: normal;
  font-weight: 400;
  font-display: swap;
  src: url(https://fonts.gstatic.com/s/inter/v3/UcCO3FwrK3iLTeHuS_fvQtMwCp50KnMw2boKoduKmMEVuLyfAZ9hjp-Ek-_EeA.woff) format('woff');
  unicode-range: U+0000-00FF, U+0131, U+0152-0153, U+02BB-02BC, U+02C6, U+02DA, U+02DC, U+2000-206F, U+2074, U+20AC, U+2122, U+2191, U+2193, U+2212, U+2215, U+FEFF, U+FFFD;
}
</style>
<g filter="url(#filter0_d)">
<rect x="45" y="116.001" width="346" height="431" rx="10" fill="#6551E0"/>
</g>
<text fill="white" xml:space="preserve" style="white-space: pre" font-family="Inter,-apple-system,BlinkMacSystemFont,Segoe UI,Helvetica,Arial,sans-serif,Apple Color Emoji,Segoe UI Emoji,Segoe UI Symbol" font-size="22" letter-spacing="0em"><tspan x="75" y="269.501">My name is Jeff! How can I </tspan><tspan x="75" y="296.501">help you today?</tspan></text>
<rect opacity="0.1" x="75" y="377" width="286" height="140" rx="8" fill="white"/>
<text opacity="0.9" fill="white" xml:space="preserve" style="white-space: pre" font-family="Inter,-apple-system,BlinkMacSystemFont,Segoe UI,Helvetica,Arial,sans-serif,Apple Color Emoji,Segoe UI Emoji,Segoe UI Symbol" font-size="15" font-weight="500" letter-spacing="-0.009em"><tspan x="92" y="407.955">Hello, team! I would like to thank </tspan><tspan x="92" y="428.955">you for the app you made. It saves a </tspan><tspan x="92" y="449.955">lot of time to host my blog posts </tspan><tspan x="92" y="470.955">and articles for me and my team. </tspan><tspan x="92" y="491.955">Appreciate it!</tspan></text>
<rect opacity="0.1" x="75" y="322" width="286" height="45" rx="8" fill="white"/>
<text opacity="0.9" fill="white" xml:space="preserve" style="white-space: pre" font-family="Inter,-apple-system,BlinkMacSystemFont,Segoe UI,Helvetica,Arial,sans-serif,Apple Color Emoji,Segoe UI Emoji,Segoe UI Symbol" font-size="16" font-weight="500" letter-spacing="-0.009em"><tspan x="92" y="350.318">kellyjones@gmail.com</tspan></text>
<g filter="url(#filter1_ddd)">
<rect x="329" y="20" width="346" height="438" rx="10" fill="white"/>
</g>
<rect opacity="0.2" x="359.5" y="384.5" width="136" height="43" rx="6.5" stroke="#1D1D1D"/>
<text fill="#1D1D1D" xml:space="preserve" style="white-space: pre" font-family="Inter,-apple-system,BlinkMacSystemFont,Segoe UI,Helvetica,Arial,sans-serif,Apple Color Emoji,Segoe UI Emoji,Segoe UI Symbol" font-size="15" font-weight="600" letter-spacing="-0.009em"><tspan x="386.272" y="411.455">Export CSV</tspan></text>
<text fill="#1D1D1D" xml:space="preserve" style="white-space: pre" font-family="Inter,-apple-system,BlinkMacSystemFont,Segoe UI,Helvetica,Arial,sans-serif,Apple Color Emoji,Segoe UI Emoji,Segoe UI Symbol" font-size="15" font-weight="600" letter-spacing="-0.009em"><tspan x="526.054" y="411.455">Mark as Spam</tspan></text>
<rect opacity="0.2" x="508.5" y="384.5" width="136" height="43" rx="6.5" stroke="#1D1D1D"/>
<text opacity="0.8" fill="#1D1D1D" xml:space="preserve" style="white-space: pre" font-family="Inter,-apple-system,BlinkMacSystemFont,Segoe UI,Helvetica,Arial,sans-serif,Apple Color Emoji,Segoe UI Emoji,Segoe UI Symbol" font-size="15" letter-spacing="-0.009em"><tspan x="359" y="220.955"><a href="mailto:kelly-jones@gmail.com">kellyjones@gmail.com</a></tspan></text>
<text fill="#1D1D1D" xml:space="preserve" style="white-space: pre" font-family="Inter,-apple-system,BlinkMacSystemFont,Segoe UI,Helvetica,Arial,sans-serif,Apple Color Emoji,Segoe UI Emoji,Segoe UI Symbol" font-size="15" font-weight="600" letter-spacing="-0.009em"><tspan x="359" y="191.455">Email</tspan></text>
<text opacity="0.8" fill="#1D1D1D" xml:space="preserve" style="white-space: pre" font-family="Inter,-apple-system,BlinkMacSystemFont,Segoe UI,Helvetica,Arial,sans-serif,Apple Color Emoji,Segoe UI Emoji,Segoe UI Symbol" font-size="15" letter-spacing="-0.009em"><tspan x="359" y="152.955">1161</tspan></text>
<text fill="#1D1D1D" xml:space="preserve" style="white-space: pre" font-family="Inter,-apple-system,BlinkMacSystemFont,Segoe UI,Helvetica,Arial,sans-serif,Apple Color Emoji,Segoe UI Emoji,Segoe UI Symbol" font-size="15" font-weight="600" letter-spacing="-0.009em"><tspan x="359" y="123.455">ID</tspan></text>
<text opacity="0.8" fill="#1D1D1D" xml:space="preserve" style="white-space: pre" font-family="Inter,-apple-system,BlinkMacSystemFont,Segoe UI,Helvetica,Arial,sans-serif,Apple Color Emoji,Segoe UI Emoji,Segoe UI Symbol" font-size="15" letter-spacing="-0.009em"><tspan x="359" y="291.955">Hello, team! I would like to thank you for </tspan><tspan x="359" y="312.955">the app you made. It saves a lot of time </tspan><tspan x="359" y="333.955">to host my blog posts and articles for me </tspan><tspan x="359" y="354.955">and my team. Appreciate it!</tspan></text>
<text fill="#1D1D1D" xml:space="preserve" style="white-space: pre" font-family="Inter,-apple-system,BlinkMacSystemFont,Segoe UI,Helvetica,Arial,sans-serif,Apple Color Emoji,Segoe UI Emoji,Segoe UI Symbol" font-size="15" font-weight="600" letter-spacing="-0.009em"><tspan x="359" y="262.455">Message</tspan></text>
<text fill="#1D1D1D" xml:space="preserve" style="white-space: pre" font-family="Inter,-apple-system,BlinkMacSystemFont,Segoe UI,Helvetica,Arial,sans-serif,Apple Color Emoji,Segoe UI Emoji,Segoe UI Symbol" font-size="22" font-weight="600" letter-spacing="-0.009em"><tspan x="359" y="73.5">New Form Entry</tspan></text>
<g clip-path="url(#clip0)">
<rect width="70" height="70" rx="35" transform="matrix(-1 0 0 1 145 156)" fill="white"/>
<path d="M89.8042 206.216C89.8042 206.216 127.713 250.484 128.152 256.401C128.59 262.318 106.918 302.128 46.1384 325.719C-14.6412 349.309 -24.6618 307.501 -24.6618 307.501L41.5985 210.787L89.8042 206.216Z" fill="#ED2B63"/>
<path d="M116.734 169.846C116.734 169.846 127.604 158.217 132.997 166.981C138.12 175.306 126.277 179.874 115.729 181.56C105.181 183.245 106.537 196.896 106.537 196.896L98.3425 199.142C98.3425 199.142 95.7513 179.284 98.8693 175.492C101.987 171.7 103.841 172.964 116.734 169.846Z" fill="#1B1B25"/>
<path d="M111.281 188.492L89.8048 206.17L102.921 242.214L117.271 202.842L111.281 188.492Z" fill="#F9BF7A"/>
<path d="M114.516 210.404L102.397 201.435L108.825 226.018L114.516 210.404Z" fill="#1B1B25"/>
<path d="M123.184 179.74L130.291 197.991L126.347 198.401C126.347 198.401 124.413 213.621 121.967 214.122C119.521 214.623 102.592 202.17 102.592 202.17C102.592 202.17 101.509 198.469 101.243 193.901C101.223 193.556 105.595 193.914 105.586 193.56C105.344 184.87 107.887 176.84 123.184 179.74Z" fill="#F9BF7A"/>
<path d="M102.008 196.106C99.9839 196.106 98.3428 194.649 98.3428 192.851C98.3428 191.054 99.9839 189.596 102.008 189.596C104.033 189.596 105.674 191.054 105.674 192.851C105.674 194.649 104.033 196.106 102.008 196.106Z" fill="#F9BF7A"/>
<path d="M121.094 189.619C120.878 188.543 121.134 187.585 121.665 187.478C122.196 187.372 122.801 188.157 123.017 189.233C123.232 190.309 122.977 191.268 122.446 191.374C121.915 191.481 121.309 190.695 121.094 189.619Z" fill="#1B1B25"/>
<path d="M121.263 184.393C121.263 184.393 120.852 186.131 119.936 186.858" stroke="#1B1B25" stroke-miterlimit="10" stroke-linecap="round" stroke-linejoin="round"/>
<path d="M121.453 200.477C121.453 200.477 122.253 203.132 124.276 203.553" stroke="#1B1B25" stroke-miterlimit="10" stroke-linecap="round" stroke-linejoin="round"/>
<path d="M101.728 192.449C101.728 192.449 103.822 192.486 104.026 193.654" stroke="#1B1B25" stroke-miterlimit="10" stroke-linecap="round" stroke-linejoin="round"/>
</g>
<defs>
<filter id="filter0_d" x="0" y="71.0006" width="466" height="551" filterUnits="userSpaceOnUse" color-interpolation-filters="sRGB">
<feFlood flood-opacity="0" result="BackgroundImageFix"/>
<feColorMatrix in="SourceAlpha" type="matrix" values="0 0 0 0 0 0 0 0 0 0 0 0 0 0 0 0 0 0 127 0"/>
<feOffset dx="15" dy="15"/>
<feGaussianBlur stdDeviation="30"/>
<feColorMatrix type="matrix" values="0 0 0 0 0 0 0 0 0 0 0 0 0 0 0 0 0 0 0.08 0"/>
<feBlend mode="normal" in2="BackgroundImageFix" result="effect1_dropShadow"/>
<feBlend mode="normal" in="SourceGraphic" in2="effect1_dropShadow" result="shape"/>
</filter>
<filter id="filter1_ddd" x="299" y="0" width="406" height="498" filterUnits="userSpaceOnUse" color-interpolation-filters="sRGB">
<feFlood flood-opacity="0" result="BackgroundImageFix"/>
<feColorMatrix in="SourceAlpha" type="matrix" values="0 0 0 0 0 0 0 0 0 0 0 0 0 0 0 0 0 0 127 0"/>
<feOffset dy="10"/>
<feGaussianBlur stdDeviation="15"/>
<feColorMatrix type="matrix" values="0 0 0 0 0 0 0 0 0 0 0 0 0 0 0 0 0 0 0.06 0"/>
<feBlend mode="normal" in2="BackgroundImageFix" result="effect1_dropShadow"/>
<feColorMatrix in="SourceAlpha" type="matrix" values="0 0 0 0 0 0 0 0 0 0 0 0 0 0 0 0 0 0 127 0"/>
<feOffset dy="1"/>
<feGaussianBlur stdDeviation="2"/>
<feColorMatrix type="matrix" values="0 0 0 0 0 0 0 0 0 0 0 0 0 0 0 0 0 0 0.05 0"/>
<feBlend mode="normal" in2="effect1_dropShadow" result="effect2_dropShadow"/>
<feColorMatrix in="SourceAlpha" type="matrix" values="0 0 0 0 0 0 0 0 0 0 0 0 0 0 0 0 0 0 127 0"/>
<feOffset dy="1"/>
<feColorMatrix type="matrix" values="0 0 0 0 0 0 0 0 0 0 0 0 0 0 0 0 0 0 0.07 0"/>
<feBlend mode="normal" in2="effect2_dropShadow" result="effect3_dropShadow"/>
<feBlend mode="normal" in="SourceGraphic" in2="effect3_dropShadow" result="shape"/>
</filter>
<clipPath id="clip0">
<rect width="70" height="70" rx="35" transform="matrix(-1 0 0 1 145 156)" fill="white"/>
</clipPath>
</defs>
</svg>
